<svg id="Filled" height="512" viewBox="0 0 512 512" width="512" xmlns="http://www.w3.org/2000/svg"><path d="m352 120a96 96 0 0 0 -97.367-95.99c-51.849.721-94.1 43.145-94.628 95a95.871 95.871 0 0 0 40 78.971v18.019a16 16 0 0 0 16 16h80a16 16 0 0 0 16-16v-18.023a95.872 95.872 0 0 0 39.995-77.977z" fill="#ffd33a"/><g fill="#e6be34"><path d="m240 152h32v80h-32z"/><circle cx="288" cy="152" r="16"/><circle cx="224" cy="152" r="16"/></g><path d="m200 280v94.7a63.992 63.992 0 0 0 8.718 32.247l47.282 81.053 47.282-81.055a63.992 63.992 0 0 0 8.718-32.245v-94.7z" fill="#3397e8"/><path d="m309.61 392a63.374 63.374 0 0 1 -6.33 14.95l-47.28 81.05-47.28-81.05a63.374 63.374 0 0 1 -6.33-14.95z" fill="#fbe9d8"/><path d="m284 440-28 48-28-48z" fill="#6a7073"/><path d="m312 264h-112a16 16 0 0 0 -16 16 16 16 0 0 0 16 16h112a16 16 0 0 0 16-16 16 16 0 0 0 -16-16z" fill="#dadcde"/><path d="m232 296h48v96h-48z" fill="#2978b8"/><path d="m312 232h-112a16 16 0 0 0 -16 16 16 16 0 0 0 16 16h112a16 16 0 0 0 16-16 16 16 0 0 0 -16-16z" fill="#e9eef2"/><path d="m320 201.974a104.334 104.334 0 0 0 40-81.974 104 104 0 1 0 -168 81.974v14.026a23.857 23.857 0 0 0 1.7 8.846 23.978 23.978 0 0 0 -11.569 39.154 23.977 23.977 0 0 0 9.869 38.624v72.076a72.073 72.073 0 0 0 9.808 36.278l40.264 69.022h-130.072a8 8 0 0 1 0-16h40a24 24 0 0 0 0-48h-24a8 8 0 0 0 0 16h24a8 8 0 0 1 0 16h-40a24 24 0 0 0 0 48h144a8 8 0 0 0 6.91-3.969l47.282-81.054a72.079 72.079 0 0 0 9.808-36.277v-72.076a23.977 23.977 0 0 0 9.869-38.624 23.978 23.978 0 0 0 -11.569-39.154 23.857 23.857 0 0 0 1.7-8.846zm-152-82.887c.48-47.356 39.391-86.42 86.74-87.079a88 88 0 0 1 89.26 87.992 88.289 88.289 0 0 1 -36.672 71.483 8 8 0 0 0 -3.328 6.494v18.023a8.009 8.009 0 0 1 -8 8h-16v-49.376a24 24 0 1 0 -14.624-30.624h-18.752a24.005 24.005 0 1 0 -14.624 30.624v49.376h-16a8.009 8.009 0 0 1 -8-8v-18.023a8 8 0 0 0 -3.328-6.494 88.2 88.2 0 0 1 -36.672-72.396zm80 40.913h16v64h-16zm32-8a8 8 0 1 1 8 8 8.009 8.009 0 0 1 -8-8zm-48 0a8 8 0 1 1 -8-8 8.009 8.009 0 0 1 8 8zm8 232v-80h32v80zm-16 0h-15.219a55.914 55.914 0 0 1 -.781-9.3v-70.7h16zm32 88.123-14.072-24.123h28.144zm23.4-40.123h-46.8l-16.967-29.086c-.557-.956-1.081-1.929-1.58-2.914h83.9c-.5.985-1.023 1.958-1.58 2.915zm23.814-48h-15.214v-80h16v70.7a55.914 55.914 0 0 1 -.781 9.3zm8.786-96h-112a8 8 0 0 1 0-16h112a8 8 0 0 1 0 16zm0-32h-112a8 8 0 0 1 0-16h112a8 8 0 0 1 0 16z"/><path d="m96 128h32a8 8 0 0 0 0-16h-32a8 8 0 0 0 0 16z"/><path d="m92.422 47.155 32 16a8 8 0 0 0 7.156-14.31l-32-16a8 8 0 1 0 -7.156 14.31z"/><path d="m124.422 176.845-32 16a8 8 0 1 0 7.156 14.31l32-16a8 8 0 1 0 -7.156-14.31z"/><path d="m419.578 192.845-32-16a8 8 0 0 0 -7.156 14.31l32 16a8 8 0 1 0 7.156-14.31z"/><path d="m384.006 64a7.976 7.976 0 0 0 3.572-.847l32-16a8 8 0 1 0 -7.156-14.31l-32 16a8 8 0 0 0 3.584 15.157z"/><path d="m384 128h32a8 8 0 0 0 0-16h-32a8 8 0 0 0 0 16z"/></svg>